<svg viewBox="0 0 64 64" fill="none" xmlns="http://www.w3.org/2000/svg">
<g clip-path="url(#clip0_16_11)">
<path d="M0 0H64V64H0V0Z" fill="#000A17"/>
<path d="M45.106 35.23C45.106 42.374 39.314 48.166 32.17 48.166C25.025 48.166 19.234 42.374 19.234 35.23V19.908C19.234 19.238 19.744 18.687 20.396 18.621L43.68 16.292C43.86 16.2737 44.0419 16.2933 44.2138 16.3497C44.3858 16.406 44.544 16.4978 44.6783 16.619C44.8126 16.7403 44.92 16.8884 44.9935 17.0538C45.0669 17.2191 45.105 17.3981 45.105 17.579L45.106 35.23ZM44.459 13C44.329 13 44.199 13.007 44.073 13.02L19.495 15.477C18.5371 15.5727 17.6489 16.0211 17.0031 16.735C16.3572 17.4489 15.9997 18.3773 16 19.34V35.23C16 44.16 23.24 51.4 32.17 51.4C41.1 51.4 48.34 44.16 48.34 35.23V16.88C48.34 16.3704 48.2396 15.8658 48.0446 15.395C47.8495 14.9241 47.5636 14.4964 47.2032 14.1361C46.8428 13.7758 46.415 13.49 45.9441 13.2951C45.4733 13.1001 44.9686 12.9999 44.459 13ZM38.961 21.137C38.917 21.137 38.874 21.139 38.831 21.143L25.251 22.501C24.9317 22.5327 24.6355 22.682 24.42 22.9198C24.2046 23.1577 24.0852 23.4671 24.085 23.788V35.23C24.085 37.3743 24.9368 39.4307 26.453 40.947C27.9693 42.4632 30.0257 43.315 32.17 43.315C34.3143 43.315 36.3707 42.4632 37.887 40.947C39.4032 39.4307 40.255 37.3743 40.255 35.23V22.43C40.255 21.716 39.675 21.137 38.961 21.137Z" fill="white"/>
</g>
<defs>
<clipPath id="clip0_16_11">
<rect width="64" height="64" fill="white"/>
</clipPath>
</defs>
</svg>
